<?xml version="1.0" encoding="UTF-8" standalone="no"?>
<!DOCTYPE svg PUBLIC "-//W3C//DTD SVG 1.1//EN" "http://www.w3.org/Graphics/SVG/1.1/DTD/svg11.dtd">
<svg xmlns="http://www.w3.org/2000/svg" version="1.1" viewBox="0.00 0.00 294.00 209.00">
<g stroke-width="2.00" fill="none" stroke-linecap="butt">
<path stroke="#840d14" vector-effect="non-scaling-stroke" d="
  M 217.21 53.47
  Q 222.69 65.35 224.16 78.01"
/>
<path stroke="#840d14" vector-effect="non-scaling-stroke" d="
  M 224.14 102.44
  Q 220.38 127.38 204.57 146.78
  Q 204.09 147.37 203.96 148.05"
/>
</g>
<path fill="#201a17" d="
  M 46.65 41.87
  Q 46.64 42.53 47.24 42.24
  Q 59.57 36.33 73.25 35.96
  C 75.71 35.90 77.54 38.14 75.94 40.43
  Q 68.32 51.37 64.80 65.26
  C 64.06 68.18 62.27 69.69 59.45 71.22
  C 27.50 88.49 36.13 138.39 73.65 140.98
  C 74.54 141.04 75.77 141.72 76.23 142.28
  C 81.36 148.48 87.07 156.91 93.88 161.21
  C 98.52 164.13 97.79 168.23 92.74 169.85
  Q 85.13 172.28 77.75 172.59
  C 41.92 174.10 16.24 148.35 10.64 114.44
  Q 9.60 108.17 9.55 94.48
  Q 9.39 51.06 9.52 8.13
  A 4.64 4.64 0.0 0 1 14.15 3.51
  Q 26.85 3.49 40.10 3.50
  C 43.52 3.50 46.63 4.41 46.65 8.25
  Q 46.73 25.19 46.65 41.87
  Z"
/>
<path fill="#201a17" d="
  M 217.21 53.47
  Q 222.69 65.35 224.16 78.01
  C 225.25 86.41 224.89 94.06 224.14 102.44
  Q 220.38 127.38 204.57 146.78
  Q 204.09 147.37 203.96 148.05
  L 203.75 147.85
  Q 203.58 147.69 203.43 147.86
  C 179.52 175.26 141.90 184.08 108.56 168.76
  Q 106.33 167.73 107.44 165.54
  L 107.63 165.17
  A 1.76 1.75 25.6 0 1 109.92 164.37
  C 173.17 192.85 233.51 133.07 218.10 69.68
  C 203.22 8.49 127.96 -13.92 84.61 34.78
  A 1.84 1.84 0.0 0 1 82.10 35.00
  L 81.78 34.74
  A 2.26 2.26 0.0 0 1 81.50 31.46
  C 122.37 -14.07 192.25 -1.65 217.21 53.47
  Z"
/>
<rect fill="#201a17" x="199.89" y="3.73" width="25.64" height="24.04" rx="9.80"/>
<path fill="#e80010" d="
  M 203.96 148.05
  Q 204.09 147.37 204.57 146.78
  Q 220.38 127.38 224.14 102.44
  Q 244.24 103.25 249.52 102.52
  C 266.06 100.20 273.40 85.08 274.14 70.00
  C 274.94 53.51 269.96 30.62 249.87 28.12
  C 244.28 27.43 239.59 28.71 236.96 22.26
  Q 233.18 13.02 239.11 5.89
  C 242.06 2.34 251.08 3.81 255.99 4.79
  C 266.62 6.92 274.20 14.81 279.47 23.73
  C 294.02 48.36 294.59 79.51 281.11 104.77
  C 275.96 114.42 267.26 123.84 256.50 126.56
  Q 252.86 127.48 244.92 127.49
  Q 233.15 127.50 221.52 127.49
  A 0.43 0.43 0.0 0 0 221.09 127.92
  Q 221.13 148.13 221.27 168.00
  Q 221.33 175.97 214.12 177.88
  C 210.27 178.91 205.99 175.74 204.62 172.16
  Q 203.97 170.46 203.99 166.24
  Q 204.04 157.14 203.96 148.05
  Z"
/>
<path fill="#e80010" d="
  M 184.32 40.44
  C 215.77 69.44 211.31 123.36 175.69 146.18
  C 164.57 153.30 148.88 157.99 135.52 155.29
  A 1.91 1.91 0.0 0 1 133.99 153.41
  L 134.00 152.96
  Q 134.02 150.61 136.35 150.87
  C 169.89 154.60 196.88 129.42 200.61 96.92
  C 206.03 49.71 158.31 11.09 114.31 36.70
  A 1.73 1.73 0.0 0 1 111.93 36.06
  L 111.69 35.64
  Q 110.56 33.64 112.55 32.48
  C 136.53 18.53 164.35 22.04 184.32 40.44
  Z"
/>
<path fill="#e80010" d="
  M 72.36 65.26
  C 73.71 57.67 78.34 48.99 82.43 42.41
  C 86.30 36.16 91.08 37.84 97.15 40.28
  C 146.58 60.14 153.50 126.52 113.18 159.14
  C 109.68 161.97 106.54 162.74 102.97 159.77
  Q 95.15 153.26 88.07 145.92
  C 84.05 141.76 86.80 138.99 90.82 136.66
  C 116.52 121.76 115.02 83.31 88.26 70.74
  C 83.79 68.64 79.27 67.78 74.40 67.72
  A 2.10 2.09 5.5 0 1 72.36 65.26
  Z"
/>
<path fill="#201a17" d="
  M 183.50 85.04
  C 180.64 60.23 159.56 41.18 133.86 46.65
  A 1.78 1.77 -11.1 0 1 131.75 45.24
  L 131.67 44.81
  Q 131.24 42.49 133.54 42.01
  C 152.08 38.12 169.95 46.44 180.10 62.14
  C 198.36 90.42 184.74 130.79 150.26 138.17
  Q 147.91 138.67 147.53 136.30
  L 147.45 135.76
  A 1.78 1.77 -10.3 0 1 148.85 133.74
  C 171.80 129.01 186.09 107.59 183.50 85.04
  Z"
/>
<path fill="#e80010" d="
  M 224.16 78.01
  Q 222.69 65.35 217.21 53.47
  Q 232.23 53.38 246.97 53.47
  C 256.57 53.52 257.71 65.63 255.05 72.23
  C 253.23 76.72 250.21 77.94 245.31 77.96
  Q 234.80 77.99 224.16 78.01
  Z"
/>
<ellipse fill="#e80010" cx="0.00" cy="0.00" transform="translate(212.59,193.05) rotate(90.4)" rx="9.01" ry="8.63"/>
<path fill="#201a17" d="
  M 100.06 186.85
  L 100.92 186.70
  Q 101.28 186.64 101.28 187.00
  L 101.24 190.76
  A 0.10 0.09 -59.7 0 1 101.06 190.81
  Q 98.91 186.80 96.12 187.09
  C 91.90 187.52 91.76 197.61 94.82 199.93
  C 96.81 201.44 99.14 200.04 100.62 198.29
  Q 100.70 198.19 100.80 198.27
  L 101.04 198.48
  A 0.43 0.43 0.0 0 1 101.11 199.06
  Q 99.73 201.01 97.74 201.42
  C 85.56 203.98 87.47 181.94 99.09 186.75
  Q 99.56 186.94 100.06 186.85
  Z"
/>
<path fill="#201a17" d="
  M 157.81 187.09
  A 1.53 1.53 0.0 0 0 156.85 186.97
  C 152.31 187.89 152.32 193.44 153.06 197.00
  C 153.93 201.24 158.39 201.64 160.66 198.25
  A 0.15 0.15 0.0 0 1 160.91 198.25
  Q 161.00 198.38 161.09 198.52
  Q 161.16 198.62 161.11 198.73
  C 159.62 202.17 154.63 202.23 152.18 200.29
  C 146.62 195.88 149.72 185.37 157.44 186.06
  Q 157.92 186.10 158.32 186.39
  Q 159.53 187.29 160.91 186.67
  Q 161.35 186.47 161.33 186.95
  L 161.24 190.01
  Q 161.20 191.36 160.66 190.12
  Q 159.73 187.99 157.81 187.09
  Z"
/>
<path fill="#201a17" d="
  M 193.61 187.06
  Q 192.25 186.98 191.83 187.95
  A 2.22 2.22 0.0 0 0 192.65 190.67
  C 194.77 192.07 197.93 193.28 198.21 196.35
  C 198.61 200.91 195.26 202.52 191.45 200.90
  Q 190.97 200.69 190.51 200.94
  L 190.16 201.13
  Q 189.58 201.44 189.62 200.78
  Q 189.76 198.69 189.54 196.65
  Q 189.52 196.46 189.61 196.38
  Q 189.70 196.30 189.86 196.32
  Q 189.93 196.33 189.96 196.39
  C 190.82 198.42 191.53 200.74 194.17 200.80
  A 2.09 2.08 -87.7 0 0 196.29 198.84
  C 196.44 196.25 191.97 194.70 190.68 193.30
  C 188.00 190.40 190.43 185.37 194.76 186.18
  A 1.79 1.73 70.7 0 1 195.64 186.62
  Q 196.37 187.29 197.16 186.75
  Q 197.61 186.44 197.62 186.98
  L 197.69 190.00
  Q 197.71 191.19 197.22 190.10
  Q 195.88 187.18 193.61 187.06
  Z"
/>
<path fill="#201a17" d="
  M 32.11 194.23
  L 32.10 188.08
  A 1.07 1.06 14.0 0 0 31.53 187.14
  L 30.81 186.76
  Q 29.94 186.31 30.93 186.31
  L 33.74 186.33
  Q 34.27 186.34 33.84 186.65
  Q 32.90 187.33 32.89 188.75
  Q 32.84 194.98 32.88 200.89
  Q 32.89 202.21 32.15 201.12
  L 24.73 190.25
  Q 23.83 188.93 23.84 190.53
  L 23.88 199.41
  A 0.95 0.94 -76.7 0 0 24.38 200.23
  L 25.41 200.79
  Q 26.27 201.25 25.30 201.25
  L 21.94 201.21
  Q 21.40 201.21 21.74 200.78
  Q 21.96 200.52 22.31 200.74
  A 0.53 0.53 0.0 0 0 23.12 200.29
  L 23.20 188.49
  Q 23.21 187.99 22.92 187.58
  Q 22.56 187.07 22.00 186.78
  Q 21.04 186.28 22.00 186.30
  L 25.34 186.35
  Q 25.93 186.36 26.26 186.85
  L 31.37 194.46
  Q 32.11 195.56 32.11 194.23
  Z"
/>
<path fill="#201a17" d="
  M 40.00 187.69
  L 40.00 198.11
  A 2.34 2.33 -6.5 0 0 42.86 200.38
  L 43.62 200.21
  A 2.62 2.61 83.9 0 0 45.65 197.68
  L 45.73 188.15
  Q 45.74 187.65 45.35 187.34
  L 44.57 186.71
  Q 44.04 186.29 44.71 186.30
  L 47.53 186.33
  A 0.20 0.19 -61.0 0 1 47.63 186.69
  Q 46.52 187.41 46.54 188.49
  Q 46.61 192.17 46.39 197.23
  Q 46.19 201.89 41.54 201.59
  L 40.41 201.52
  A 3.62 3.62 0.0 0 1 37.01 197.91
  L 36.99 188.27
  Q 36.99 187.78 36.76 187.35
  Q 36.48 186.83 36.00 186.67
  Q 34.74 186.25 36.00 186.28
  L 41.10 186.39
  Q 42.61 186.42 41.15 186.81
  L 40.55 186.97
  A 0.75 0.75 0.0 0 0 40.00 187.69
  Z"
/>
<path fill="#201a17" d="
  M 56.42 188.00
  L 56.41 199.70
  Q 56.41 200.29 56.95 200.53
  L 57.53 200.80
  A 0.23 0.23 0.0 0 1 57.43 201.24
  L 52.23 201.23
  Q 51.31 201.23 52.15 200.88
  L 52.80 200.61
  A 0.91 0.89 78.7 0 0 53.34 199.78
  L 53.32 187.76
  A 0.55 0.54 87.6 0 0 52.73 187.21
  Q 50.08 187.41 49.59 190.03
  Q 49.54 190.28 49.31 190.18
  Q 49.14 190.11 49.15 190.00
  Q 49.19 188.42 49.25 186.85
  A 0.55 0.55 0.0 0 1 49.80 186.33
  L 59.91 186.31
  A 0.62 0.62 0.0 0 1 60.53 186.91
  L 60.64 189.51
  Q 60.68 190.51 60.21 189.62
  Q 58.96 187.24 57.29 187.17
  A 0.83 0.83 0.0 0 0 56.42 188.00
  Z"
/>
<path fill="#201a17" d="
  M 66.32 194.81
  L 66.24 199.52
  Q 66.23 200.16 66.80 200.46
  L 67.41 200.77
  A 0.26 0.25 59.2 0 1 67.29 201.25
  L 61.78 201.21
  A 0.11 0.11 0.0 0 1 61.71 201.02
  Q 62.03 200.74 62.48 200.74
  A 0.80 0.79 -0.7 0 0 63.26 199.95
  L 63.26 188.15
  Q 63.26 187.76 63.09 187.42
  Q 62.91 187.08 62.64 186.86
  Q 61.97 186.33 62.83 186.32
  Q 67.01 186.23 69.50 186.43
  C 73.75 186.76 74.31 192.17 70.89 194.12
  Q 70.43 194.38 70.71 194.84
  L 73.97 200.17
  A 1.37 1.36 39.8 0 0 76.41 199.95
  L 81.37 187.01
  Q 81.82 185.81 82.27 187.01
  L 87.00 199.69
  Q 87.16 200.13 87.53 200.40
  L 87.96 200.72
  Q 88.66 201.24 87.79 201.23
  L 82.79 201.23
  Q 81.52 201.23 82.72 200.83
  L 83.42 200.60
  A 0.59 0.59 0.0 0 0 83.79 199.84
  L 82.93 197.40
  Q 82.79 197.01 82.38 197.00
  L 78.97 196.97
  A 0.91 0.89 13.5 0 0 78.17 197.45
  C 77.64 198.44 77.21 200.06 78.61 200.79
  Q 79.48 201.24 78.50 201.24
  L 72.07 201.24
  A 1.65 1.64 -15.5 0 1 70.66 200.45
  L 67.12 194.59
  A 0.43 0.43 0.0 0 0 66.32 194.81
  Z
  M 66.24 187.74
  L 66.26 193.16
  A 0.52 0.52 0.0 0 0 66.79 193.68
  L 67.43 193.67
  A 2.62 2.49 -0.3 0 0 70.03 191.17
  L 70.03 189.69
  A 2.62 2.49 -0.3 0 0 67.39 187.21
  L 66.75 187.22
  A 0.52 0.52 0.0 0 0 66.24 187.74
  Z
  M 78.91 195.68
  A 0.32 0.32 0.0 0 0 79.21 196.11
  L 82.05 196.09
  A 0.32 0.32 0.0 0 0 82.34 195.65
  L 80.88 191.98
  A 0.32 0.32 0.0 0 0 80.29 191.99
  L 78.91 195.68
  Z"
/>
<path fill="#201a17" d="
  M 107.49 194.52
  L 107.48 199.24
  A 1.17 1.17 0.0 0 0 108.63 200.41
  C 112.14 200.45 112.27 199.35 113.69 196.94
  Q 114.09 196.27 114.02 197.04
  L 113.69 200.66
  Q 113.63 201.24 113.04 201.24
  L 103.21 201.24
  Q 102.67 201.24 103.03 200.84
  Q 103.17 200.67 103.31 200.68
  A 1.04 1.03 1.3 0 0 104.39 199.66
  Q 104.47 194.37 104.41 189.00
  Q 104.40 187.32 103.43 186.53
  Q 103.19 186.33 103.50 186.33
  L 112.53 186.31
  A 0.62 0.61 86.3 0 1 113.14 186.85
  Q 113.38 188.78 113.12 190.14
  Q 112.93 191.13 112.70 190.15
  Q 111.86 186.61 108.01 187.34
  Q 107.47 187.44 107.47 187.99
  L 107.48 192.74
  A 0.58 0.58 0.0 0 0 108.26 193.28
  Q 109.24 192.90 110.24 190.45
  Q 110.51 189.81 110.51 190.50
  L 110.51 196.75
  Q 110.51 197.90 110.14 196.81
  Q 109.37 194.50 108.16 194.05
  A 0.50 0.49 -79.6 0 0 107.49 194.52
  Z"
/>
<path fill="#201a17" d="
  M 121.24 186.82
  Q 120.74 186.86 120.33 187.18
  Q 120.00 187.44 120.00 187.86
  L 120.00 198.05
  A 2.40 2.40 0.0 0 0 122.80 200.42
  L 123.61 200.28
  A 2.45 2.44 -4.5 0 0 125.65 197.90
  L 125.77 188.17
  Q 125.78 187.64 125.36 187.32
  L 124.57 186.72
  A 0.25 0.24 64.0 0 1 124.72 186.28
  L 127.50 186.33
  Q 128.06 186.34 127.61 186.66
  Q 126.58 187.39 126.59 188.74
  Q 126.62 192.30 126.43 197.17
  Q 126.25 201.84 121.58 201.59
  L 120.55 201.54
  A 3.75 3.74 -88.5 0 1 117.01 197.81
  L 116.99 187.73
  Q 116.99 187.30 116.62 187.10
  L 115.84 186.68
  Q 115.14 186.31 115.93 186.31
  L 121.22 186.36
  A 0.23 0.23 0.0 0 1 121.24 186.82
  Z"
/>
<path fill="#201a17" d="
  M 136.45 187.99
  L 136.45 199.70
  A 0.91 0.90 -76.7 0 0 136.95 200.51
  L 137.43 200.75
  Q 138.38 201.23 137.32 201.23
  L 132.22 201.23
  Q 130.94 201.23 132.16 200.86
  L 132.55 200.75
  A 1.22 1.22 0.0 0 0 133.42 199.58
  L 133.41 188.29
  A 1.11 1.11 0.0 0 0 131.87 187.27
  Q 130.14 187.99 129.66 189.81
  Q 129.33 191.06 129.23 189.77
  Q 129.12 188.33 129.32 186.93
  Q 129.40 186.33 130.00 186.33
  L 140.02 186.33
  A 0.57 0.57 0.0 0 1 140.60 186.89
  L 140.66 189.50
  Q 140.68 190.92 140.16 189.60
  Q 139.20 187.18 137.23 187.20
  Q 136.45 187.21 136.45 187.99
  Z"
/>
<path fill="#201a17" d="
  M 146.96 186.96
  A 0.94 0.93 76.4 0 0 146.46 187.79
  L 146.45 199.70
  A 0.92 0.91 14.1 0 0 146.94 200.51
  L 147.32 200.72
  Q 148.27 201.23 147.19 201.23
  L 142.21 201.23
  Q 140.90 201.23 142.16 200.86
  L 142.54 200.76
  A 1.18 1.17 82.6 0 0 143.38 199.66
  Q 143.47 194.61 143.38 189.50
  Q 143.34 187.42 142.45 186.44
  Q 142.35 186.32 142.51 186.32
  L 147.53 186.34
  Q 148.16 186.34 147.60 186.63
  L 146.96 186.96
  Z"
/>
<path fill="#201a17" d="
  M 169.64 196.98
  L 166.48 196.96
  A 0.90 0.90 0.0 0 0 165.68 197.45
  Q 165.07 198.63 164.97 199.96
  Q 164.95 200.37 165.35 200.46
  Q 165.81 200.56 166.13 200.87
  Q 166.52 201.24 165.98 201.24
  L 163.06 201.23
  Q 162.18 201.22 162.88 200.70
  L 163.37 200.34
  Q 163.81 200.01 164.01 199.50
  L 168.87 186.82
  Q 169.28 185.77 169.66 186.83
  Q 171.79 192.83 174.06 199.11
  Q 174.66 200.80 176.41 200.97
  A 1.51 1.50 3.1 0 0 178.07 199.49
  Q 178.12 193.26 177.93 187.75
  Q 177.91 187.02 176.70 186.50
  A 0.09 0.09 0.0 0 1 176.74 186.33
  L 182.26 186.37
  Q 182.78 186.37 182.37 186.69
  Q 182.09 186.92 181.74 187.01
  A 0.78 0.78 0.0 0 0 181.17 187.76
  L 181.14 199.47
  Q 181.14 200.07 181.73 200.20
  Q 186.65 201.32 187.35 196.57
  A 0.28 0.28 0.0 0 1 187.90 196.63
  L 187.61 200.71
  Q 187.58 201.24 187.04 201.24
  L 170.42 201.22
  Q 169.41 201.22 170.34 200.83
  L 170.78 200.64
  Q 171.36 200.40 171.16 199.80
  L 170.42 197.55
  Q 170.23 196.98 169.64 196.98
  Z
  M 166.38 195.56
  A 0.37 0.37 0.0 0 0 166.73 196.06
  L 169.30 196.08
  A 0.37 0.37 0.0 0 0 169.66 195.59
  L 168.40 191.98
  A 0.37 0.37 0.0 0 0 167.70 191.97
  L 166.38 195.56
  Z"
/>
</svg>
